# xmcd
#
# Track frame offsets:
#	150
#	16213
#	30857
#	44904
#	61228
#	78101
#	90801
#	105812
#	122127
#	134465
#	149539
#	164044
#	180275
#	196486
#	209631
#	219932
#	229935
#	239097
#	249240
#	258268
#	271015
#	280760
#
# Disc length: 3881 seconds
#
# Revision: 0
# Processed by: cddbd v1.5.1PL0 Copyright (c) Steve Scherf et al.
# Submitted via: dBpowerAMP V4.0
#
DISCID=2d0f2716
DTITLE=Beneski fantje - 45 let
DYEAR=1997
DGENRE=Country
TTITLE0=Zlati decki
TTITLE1=Za toje oci zelene
TTITLE2=Fantje, zapojmo!
TTITLE3=Cez Livek te povabim
TTITLE4=Kje si?
TTITLE5=Moja Urska
TTITLE6=Upanje
TTITLE7=Izlet v Benecijo
TTITLE8=Danes prelep je dan
TTITLE9=Benecanom
TTITLE10=4 vrtnice
TTITLE11=Bodi dobre volje
TTITLE12=S jitaro po svetu
TTITLE13=Rdeci cvet
TTITLE14=Vstani gor dekle veselo
TTITLE15=Od kod si dekle ti doma
TTITLE16=Beri, beri micika
TTITLE17=Na vaskem plesu
TTITLE18=Ne hodi mi tode ponoci
TTITLE19=Ko pride pomlad
TTITLE20=Zima v Furlaniji
TTITLE21=Goslac
EXTD=
EXTT0=
EXTT1=
EXTT2=
EXTT3=
EXTT4=
EXTT5=
EXTT6=
EXTT7=
EXTT8=
EXTT9=
EXTT10=
EXTT11=
EXTT12=
EXTT13=
EXTT14=
EXTT15=
EXTT16=
EXTT17=
EXTT18=
EXTT19=
EXTT20=
EXTT21=
PLAYORDER=
